<mxfile host="app.diagrams.net" modified="2022-05-22T06:59:25.191Z" agent="5.0 (Windows NT 10.0; Win64; x64) AppleWebKit/537.36 (KHTML, like Gecko) Chrome/101.0.4951.64 Safari/537.36 Edg/101.0.1210.53" etag="7LHHKnK2TFG2czy8vmtu" version="18.1.1" type="github">
  <diagram id="eAoMftN8fxg14D9AwdYH" name="Page-1">
    <mxGraphModel dx="2523" dy="934" grid="1" gridSize="10" guides="1" tooltips="1" connect="1" arrows="1" fold="1" page="1" pageScale="1" pageWidth="850" pageHeight="1100" math="0" shadow="0">
      <root>
        <mxCell id="0" />
        <mxCell id="1" parent="0" />
        <mxCell id="TBOhOPIbtPdTFM1R8Poz-24" style="edgeStyle=orthogonalEdgeStyle;rounded=0;orthogonalLoop=1;jettySize=auto;html=1;entryX=0.011;entryY=0.578;entryDx=0;entryDy=0;entryPerimeter=0;fontSize=14;strokeWidth=3;" edge="1" parent="1" source="TBOhOPIbtPdTFM1R8Poz-13" target="TBOhOPIbtPdTFM1R8Poz-14">
          <mxGeometry relative="1" as="geometry" />
        </mxCell>
        <mxCell id="TBOhOPIbtPdTFM1R8Poz-46" value="&lt;b&gt;User input&lt;/b&gt;" style="edgeLabel;html=1;align=center;verticalAlign=middle;resizable=0;points=[];fontSize=14;" vertex="1" connectable="0" parent="TBOhOPIbtPdTFM1R8Poz-24">
          <mxGeometry x="-0.2037" y="-2" relative="1" as="geometry">
            <mxPoint as="offset" />
          </mxGeometry>
        </mxCell>
        <mxCell id="TBOhOPIbtPdTFM1R8Poz-13" value="&lt;b&gt;User&lt;/b&gt;" style="rounded=1;whiteSpace=wrap;html=1;strokeWidth=2;fillWeight=4;hachureGap=8;hachureAngle=45;fillColor=#1ba1e2;sketch=1;fontSize=14;" vertex="1" parent="1">
          <mxGeometry x="-230" y="227" width="120" height="60" as="geometry" />
        </mxCell>
        <mxCell id="TBOhOPIbtPdTFM1R8Poz-14" value="&lt;b&gt;Get Input&lt;/b&gt;" style="rounded=1;whiteSpace=wrap;html=1;absoluteArcSize=1;arcSize=14;strokeWidth=2;fontSize=14;fillColor=#d5e8d4;strokeColor=#82b366;" vertex="1" parent="1">
          <mxGeometry x="230" y="200" width="100" height="100" as="geometry" />
        </mxCell>
        <mxCell id="TBOhOPIbtPdTFM1R8Poz-40" style="edgeStyle=orthogonalEdgeStyle;rounded=0;orthogonalLoop=1;jettySize=auto;html=1;exitX=0;exitY=0.5;exitDx=0;exitDy=0;exitPerimeter=0;entryX=1;entryY=0.5;entryDx=0;entryDy=0;fontSize=14;strokeWidth=3;" edge="1" parent="1" source="TBOhOPIbtPdTFM1R8Poz-15" target="TBOhOPIbtPdTFM1R8Poz-22">
          <mxGeometry relative="1" as="geometry" />
        </mxCell>
        <mxCell id="TBOhOPIbtPdTFM1R8Poz-47" value="&lt;b&gt;Fetching required data&lt;/b&gt;" style="edgeLabel;html=1;align=center;verticalAlign=middle;resizable=0;points=[];fontSize=14;" vertex="1" connectable="0" parent="TBOhOPIbtPdTFM1R8Poz-40">
          <mxGeometry x="-0.3859" y="-2" relative="1" as="geometry">
            <mxPoint x="-5" y="27" as="offset" />
          </mxGeometry>
        </mxCell>
        <mxCell id="TBOhOPIbtPdTFM1R8Poz-15" value="&lt;b&gt;&lt;br&gt;&lt;br&gt;Travel&lt;br&gt;Database&lt;/b&gt;" style="strokeWidth=2;html=1;shape=mxgraph.flowchart.database;whiteSpace=wrap;fontSize=14;fillColor=#f8cecc;strokeColor=#b85450;" vertex="1" parent="1">
          <mxGeometry x="684" y="460" width="72" height="90" as="geometry" />
        </mxCell>
        <mxCell id="TBOhOPIbtPdTFM1R8Poz-16" value="&lt;b&gt;Finding Tour Schedule!&lt;/b&gt;" style="rounded=1;whiteSpace=wrap;html=1;absoluteArcSize=1;arcSize=14;strokeWidth=2;fontSize=14;fillColor=#ffe6cc;strokeColor=#d79b00;" vertex="1" parent="1">
          <mxGeometry x="20" y="370" width="100" height="100" as="geometry" />
        </mxCell>
        <mxCell id="TBOhOPIbtPdTFM1R8Poz-25" value="&lt;b&gt;Update Database&lt;/b&gt;" style="edgeStyle=orthogonalEdgeStyle;rounded=0;orthogonalLoop=1;jettySize=auto;html=1;exitX=0.5;exitY=1;exitDx=0;exitDy=0;entryX=0.5;entryY=0;entryDx=0;entryDy=0;entryPerimeter=0;fontSize=14;strokeWidth=3;" edge="1" parent="1" source="TBOhOPIbtPdTFM1R8Poz-18" target="TBOhOPIbtPdTFM1R8Poz-15">
          <mxGeometry relative="1" as="geometry" />
        </mxCell>
        <mxCell id="TBOhOPIbtPdTFM1R8Poz-18" value="&lt;b&gt;Admin&lt;/b&gt;" style="rounded=1;whiteSpace=wrap;html=1;strokeWidth=2;fillWeight=4;hachureGap=8;hachureAngle=45;fillColor=#1ba1e2;sketch=1;fontSize=14;" vertex="1" parent="1">
          <mxGeometry x="660" y="220" width="120" height="60" as="geometry" />
        </mxCell>
        <mxCell id="TBOhOPIbtPdTFM1R8Poz-19" value="&lt;b&gt;Events&lt;/b&gt;" style="strokeWidth=2;html=1;shape=mxgraph.flowchart.stored_data;whiteSpace=wrap;fontSize=14;fillColor=#f8cecc;strokeColor=#b85450;" vertex="1" parent="1">
          <mxGeometry x="670" y="720" width="100" height="60" as="geometry" />
        </mxCell>
        <mxCell id="TBOhOPIbtPdTFM1R8Poz-31" style="edgeStyle=orthogonalEdgeStyle;rounded=0;orthogonalLoop=1;jettySize=auto;html=1;exitX=0.5;exitY=1;exitDx=0;exitDy=0;entryX=0.5;entryY=0;entryDx=0;entryDy=0;fontSize=14;strokeWidth=3;" edge="1" parent="1" source="TBOhOPIbtPdTFM1R8Poz-20" target="TBOhOPIbtPdTFM1R8Poz-22">
          <mxGeometry relative="1" as="geometry" />
        </mxCell>
        <mxCell id="TBOhOPIbtPdTFM1R8Poz-20" value="&lt;b&gt;Post/Find Events&lt;/b&gt;" style="rounded=1;whiteSpace=wrap;html=1;absoluteArcSize=1;arcSize=14;strokeWidth=2;fontSize=14;fillColor=#ffe6cc;strokeColor=#d79b00;" vertex="1" parent="1">
          <mxGeometry x="230" y="370" width="100" height="100" as="geometry" />
        </mxCell>
        <mxCell id="TBOhOPIbtPdTFM1R8Poz-21" value="&lt;b&gt;Finding Tourmate&lt;/b&gt;" style="rounded=1;whiteSpace=wrap;html=1;absoluteArcSize=1;arcSize=14;strokeWidth=2;fontSize=14;fillColor=#ffe6cc;strokeColor=#d79b00;" vertex="1" parent="1">
          <mxGeometry x="440" y="370" width="100" height="100" as="geometry" />
        </mxCell>
        <mxCell id="TBOhOPIbtPdTFM1R8Poz-68" style="edgeStyle=orthogonalEdgeStyle;rounded=0;jumpSize=10;orthogonalLoop=1;jettySize=auto;html=1;entryX=0.5;entryY=0;entryDx=0;entryDy=0;fontSize=14;strokeWidth=3;" edge="1" parent="1" source="TBOhOPIbtPdTFM1R8Poz-22" target="TBOhOPIbtPdTFM1R8Poz-57">
          <mxGeometry relative="1" as="geometry" />
        </mxCell>
        <mxCell id="TBOhOPIbtPdTFM1R8Poz-70" value="&lt;b&gt;Required Data&lt;/b&gt;" style="edgeLabel;html=1;align=center;verticalAlign=middle;resizable=0;points=[];fontSize=14;" vertex="1" connectable="0" parent="TBOhOPIbtPdTFM1R8Poz-68">
          <mxGeometry x="-0.2431" y="-1" relative="1" as="geometry">
            <mxPoint as="offset" />
          </mxGeometry>
        </mxCell>
        <mxCell id="TBOhOPIbtPdTFM1R8Poz-22" value="&lt;b&gt;Fetch Data&lt;/b&gt;" style="rounded=1;whiteSpace=wrap;html=1;absoluteArcSize=1;arcSize=14;strokeWidth=2;fontSize=14;fillColor=#ffe6cc;strokeColor=#d79b00;" vertex="1" parent="1">
          <mxGeometry x="230" y="550" width="100" height="100" as="geometry" />
        </mxCell>
        <mxCell id="TBOhOPIbtPdTFM1R8Poz-33" style="edgeStyle=orthogonalEdgeStyle;rounded=0;orthogonalLoop=1;jettySize=auto;html=1;exitX=0;exitY=0.5;exitDx=0;exitDy=0;entryX=0.5;entryY=1;entryDx=0;entryDy=0;fontSize=14;strokeWidth=3;" edge="1" parent="1" source="TBOhOPIbtPdTFM1R8Poz-23" target="TBOhOPIbtPdTFM1R8Poz-13">
          <mxGeometry relative="1" as="geometry" />
        </mxCell>
        <mxCell id="TBOhOPIbtPdTFM1R8Poz-45" value="&lt;b&gt;Output&lt;/b&gt;" style="edgeLabel;html=1;align=center;verticalAlign=middle;resizable=0;points=[];fontSize=14;" vertex="1" connectable="0" parent="TBOhOPIbtPdTFM1R8Poz-33">
          <mxGeometry x="0.4903" y="1" relative="1" as="geometry">
            <mxPoint as="offset" />
          </mxGeometry>
        </mxCell>
        <mxCell id="TBOhOPIbtPdTFM1R8Poz-23" value="&lt;b&gt;Generate Output&lt;/b&gt;" style="rounded=1;whiteSpace=wrap;html=1;absoluteArcSize=1;arcSize=14;strokeWidth=2;fontSize=14;fillColor=#d5e8d4;strokeColor=#82b366;" vertex="1" parent="1">
          <mxGeometry x="230" y="910" width="100" height="100" as="geometry" />
        </mxCell>
        <mxCell id="TBOhOPIbtPdTFM1R8Poz-27" value="" style="endArrow=classic;html=1;rounded=0;fontSize=14;entryX=0.5;entryY=0;entryDx=0;entryDy=0;exitX=0;exitY=1;exitDx=0;exitDy=0;strokeWidth=3;" edge="1" parent="1" source="TBOhOPIbtPdTFM1R8Poz-14" target="TBOhOPIbtPdTFM1R8Poz-16">
          <mxGeometry width="50" height="50" relative="1" as="geometry">
            <mxPoint x="200" y="310" as="sourcePoint" />
            <mxPoint x="170" y="300" as="targetPoint" />
          </mxGeometry>
        </mxCell>
        <mxCell id="TBOhOPIbtPdTFM1R8Poz-29" value="" style="endArrow=classic;html=1;rounded=0;fontSize=14;exitX=0.5;exitY=1;exitDx=0;exitDy=0;entryX=0.5;entryY=0;entryDx=0;entryDy=0;strokeWidth=3;" edge="1" parent="1" source="TBOhOPIbtPdTFM1R8Poz-14" target="TBOhOPIbtPdTFM1R8Poz-20">
          <mxGeometry width="50" height="50" relative="1" as="geometry">
            <mxPoint x="290" y="337" as="sourcePoint" />
            <mxPoint x="340" y="287" as="targetPoint" />
          </mxGeometry>
        </mxCell>
        <mxCell id="TBOhOPIbtPdTFM1R8Poz-30" value="" style="endArrow=classic;html=1;rounded=0;fontSize=14;exitX=1;exitY=1;exitDx=0;exitDy=0;entryX=0.5;entryY=0;entryDx=0;entryDy=0;strokeWidth=3;" edge="1" parent="1" source="TBOhOPIbtPdTFM1R8Poz-14" target="TBOhOPIbtPdTFM1R8Poz-21">
          <mxGeometry width="50" height="50" relative="1" as="geometry">
            <mxPoint x="390" y="310" as="sourcePoint" />
            <mxPoint x="440" y="260" as="targetPoint" />
          </mxGeometry>
        </mxCell>
        <mxCell id="TBOhOPIbtPdTFM1R8Poz-36" value="" style="endArrow=classic;startArrow=classic;html=1;rounded=0;fontSize=14;exitX=1;exitY=1;exitDx=0;exitDy=0;entryX=0.1;entryY=0;entryDx=0;entryDy=0;entryPerimeter=0;strokeWidth=3;" edge="1" parent="1" source="TBOhOPIbtPdTFM1R8Poz-20" target="TBOhOPIbtPdTFM1R8Poz-19">
          <mxGeometry width="50" height="50" relative="1" as="geometry">
            <mxPoint x="420" y="560" as="sourcePoint" />
            <mxPoint x="470" y="510" as="targetPoint" />
          </mxGeometry>
        </mxCell>
        <mxCell id="TBOhOPIbtPdTFM1R8Poz-48" value="&lt;b&gt;Store and fetch event details&lt;/b&gt;" style="edgeLabel;html=1;align=center;verticalAlign=middle;resizable=0;points=[];fontSize=14;" vertex="1" connectable="0" parent="TBOhOPIbtPdTFM1R8Poz-36">
          <mxGeometry x="0.2174" relative="1" as="geometry">
            <mxPoint x="67" y="42" as="offset" />
          </mxGeometry>
        </mxCell>
        <mxCell id="TBOhOPIbtPdTFM1R8Poz-38" value="" style="endArrow=classic;html=1;rounded=0;fontSize=14;entryX=0.93;entryY=0.5;entryDx=0;entryDy=0;entryPerimeter=0;strokeWidth=3;" edge="1" parent="1" target="TBOhOPIbtPdTFM1R8Poz-19">
          <mxGeometry width="50" height="50" relative="1" as="geometry">
            <mxPoint x="780" y="250" as="sourcePoint" />
            <mxPoint x="830" y="200" as="targetPoint" />
            <Array as="points">
              <mxPoint x="900" y="480" />
            </Array>
          </mxGeometry>
        </mxCell>
        <mxCell id="TBOhOPIbtPdTFM1R8Poz-54" value="&lt;b&gt;Update Database&lt;/b&gt;" style="edgeLabel;html=1;align=center;verticalAlign=middle;resizable=0;points=[];fontSize=14;" vertex="1" connectable="0" parent="TBOhOPIbtPdTFM1R8Poz-38">
          <mxGeometry x="0.004" y="1" relative="1" as="geometry">
            <mxPoint x="9" y="-21" as="offset" />
          </mxGeometry>
        </mxCell>
        <mxCell id="TBOhOPIbtPdTFM1R8Poz-43" value="" style="endArrow=classic;html=1;rounded=0;fontSize=14;exitX=0.5;exitY=1;exitDx=0;exitDy=0;entryX=0;entryY=0.5;entryDx=0;entryDy=0;strokeWidth=3;" edge="1" parent="1" source="TBOhOPIbtPdTFM1R8Poz-16" target="TBOhOPIbtPdTFM1R8Poz-22">
          <mxGeometry width="50" height="50" relative="1" as="geometry">
            <mxPoint x="80" y="590" as="sourcePoint" />
            <mxPoint x="130" y="540" as="targetPoint" />
          </mxGeometry>
        </mxCell>
        <mxCell id="TBOhOPIbtPdTFM1R8Poz-44" value="" style="endArrow=classic;html=1;rounded=0;fontSize=14;entryX=1;entryY=0.5;entryDx=0;entryDy=0;strokeWidth=3;" edge="1" parent="1" target="TBOhOPIbtPdTFM1R8Poz-22">
          <mxGeometry width="50" height="50" relative="1" as="geometry">
            <mxPoint x="490" y="470" as="sourcePoint" />
            <mxPoint x="540" y="420" as="targetPoint" />
          </mxGeometry>
        </mxCell>
        <mxCell id="TBOhOPIbtPdTFM1R8Poz-50" value="" style="endArrow=none;dashed=1;html=1;dashPattern=1 3;strokeWidth=4;rounded=0;fontSize=14;exitX=1;exitY=0.5;exitDx=0;exitDy=0;entryX=0;entryY=0.5;entryDx=0;entryDy=0;" edge="1" parent="1" source="TBOhOPIbtPdTFM1R8Poz-20" target="TBOhOPIbtPdTFM1R8Poz-21">
          <mxGeometry width="50" height="50" relative="1" as="geometry">
            <mxPoint x="345" y="419.41" as="sourcePoint" />
            <mxPoint x="425" y="419.41" as="targetPoint" />
          </mxGeometry>
        </mxCell>
        <mxCell id="TBOhOPIbtPdTFM1R8Poz-53" value="&lt;b&gt;etc&lt;/b&gt;" style="edgeLabel;html=1;align=center;verticalAlign=middle;resizable=0;points=[];fontSize=14;" vertex="1" connectable="0" parent="TBOhOPIbtPdTFM1R8Poz-50">
          <mxGeometry x="-0.1662" y="1" relative="1" as="geometry">
            <mxPoint as="offset" />
          </mxGeometry>
        </mxCell>
        <mxCell id="TBOhOPIbtPdTFM1R8Poz-51" value="" style="endArrow=none;dashed=1;html=1;dashPattern=1 3;strokeWidth=4;rounded=0;fontSize=14;exitX=1;exitY=0.5;exitDx=0;exitDy=0;entryX=0;entryY=0.5;entryDx=0;entryDy=0;jumpSize=10;" edge="1" parent="1">
          <mxGeometry width="50" height="50" relative="1" as="geometry">
            <mxPoint x="119.99999999999955" y="419.4099999999998" as="sourcePoint" />
            <mxPoint x="229.99999999999955" y="419.4099999999998" as="targetPoint" />
          </mxGeometry>
        </mxCell>
        <mxCell id="TBOhOPIbtPdTFM1R8Poz-52" value="&lt;b&gt;etc&lt;/b&gt;" style="edgeLabel;html=1;align=center;verticalAlign=middle;resizable=0;points=[];fontSize=14;" vertex="1" connectable="0" parent="TBOhOPIbtPdTFM1R8Poz-51">
          <mxGeometry x="-0.1714" y="2" relative="1" as="geometry">
            <mxPoint as="offset" />
          </mxGeometry>
        </mxCell>
        <mxCell id="TBOhOPIbtPdTFM1R8Poz-69" style="edgeStyle=orthogonalEdgeStyle;rounded=0;jumpSize=10;orthogonalLoop=1;jettySize=auto;html=1;exitX=0.5;exitY=1;exitDx=0;exitDy=0;entryX=0.5;entryY=0;entryDx=0;entryDy=0;fontSize=14;strokeWidth=3;" edge="1" parent="1" source="TBOhOPIbtPdTFM1R8Poz-57" target="TBOhOPIbtPdTFM1R8Poz-23">
          <mxGeometry relative="1" as="geometry" />
        </mxCell>
        <mxCell id="TBOhOPIbtPdTFM1R8Poz-71" value="&lt;b&gt;Delivering results&lt;br&gt;&lt;/b&gt;" style="edgeLabel;html=1;align=center;verticalAlign=middle;resizable=0;points=[];fontSize=14;" vertex="1" connectable="0" parent="TBOhOPIbtPdTFM1R8Poz-69">
          <mxGeometry x="-0.2086" y="1" relative="1" as="geometry">
            <mxPoint as="offset" />
          </mxGeometry>
        </mxCell>
        <mxCell id="TBOhOPIbtPdTFM1R8Poz-57" value="&lt;b&gt;SQL Query&lt;/b&gt;" style="rounded=1;whiteSpace=wrap;html=1;absoluteArcSize=1;arcSize=14;strokeWidth=2;fontSize=14;fillColor=#ffe6cc;strokeColor=#d79b00;" vertex="1" parent="1">
          <mxGeometry x="230" y="730" width="100" height="100" as="geometry" />
        </mxCell>
      </root>
    </mxGraphModel>
  </diagram>
</mxfile>
